<svg width="186" height="48" viewBox="0 0 186 48" fill="none" xmlns="http://www.w3.org/2000/svg" role="img" aria-label="QuikFill">
  <defs>
    <linearGradient id="qfTileL" x1="6" y1="2" x2="42" y2="46" gradientUnits="userSpaceOnUse">
      <stop stop-color="#3F66E0"></stop>
      <stop offset="1" stop-color="#2544C0"></stop>
    </linearGradient>
  </defs>
  <rect width="48" height="48" rx="13" fill="url(#qfTileL)"></rect>
  <path d="M25.25 11.5 12.75 26.5H24l-1.25 10 12.5-15H24l1.25-9.5Z" fill="#fff" stroke="#fff" stroke-width="1.6" stroke-linejoin="round"></path>
  <circle cx="35.4" cy="12.6" r="3.4" fill="#13C296"></circle>
  <path fill="#1C274C" d="M76.61 34.71L76.61 34.71Q74.00 34.71 71.77 33.81Q69.54 32.91 67.88 31.28Q66.22 29.66 65.29 27.49Q64.36 25.32 64.36 22.78L64.36 22.78Q64.36 20.23 65.28 18.06Q66.19 15.89 67.85 14.28Q69.51 12.67 71.74 11.77Q73.97 10.87 76.61 10.87L76.61 10.87Q79.24 10.87 81.48 11.77Q83.71 12.67 85.37 14.28Q87.03 15.89 87.94 18.06Q88.85 20.23 88.85 22.78L88.85 22.78Q88.85 25.84 87.51 28.37Q86.16 30.90 83.86 32.51L83.86 32.51L86.56 37.13L81.51 37.13L79.89 34.31Q78.31 34.71 76.61 34.71ZM76.61 30.37L76.61 30.37Q77.11 30.37 77.60 30.31L77.60 30.31L74.63 25.10L79.59 25.10L81.60 28.54Q82.72 27.55 83.38 26.06Q84.05 24.57 84.05 22.78L84.05 22.78Q84.05 20.54 83.07 18.84Q82.10 17.13 80.41 16.17Q78.72 15.21 76.61 15.21L76.61 15.21Q74.50 15.21 72.81 16.17Q71.12 17.13 70.15 18.84Q69.17 20.54 69.17 22.78L69.17 22.78Q69.17 25.01 70.15 26.71Q71.12 28.42 72.81 29.39Q74.50 30.37 76.61 30.37ZM98.00 34.71L98.00 34.71Q94.90 34.71 93.24 32.77Q91.58 30.84 91.58 27.67L91.58 27.67L91.58 17.41L96.23 17.41L96.23 27.30Q96.23 28.76 97.10 29.64Q97.97 30.53 99.33 30.53L99.33 30.53Q100.70 30.53 101.56 29.64Q102.43 28.76 102.43 27.30L102.43 27.30L102.43 17.41L107.08 17.41L107.08 34.34L102.74 34.34L102.74 32.26Q102.09 33.50 100.85 34.11Q99.61 34.71 98.00 34.71ZM115.14 15.89L110.49 15.89L110.49 11.24L115.14 11.24L115.14 15.89ZM115.14 34.34L110.49 34.34L110.49 17.41L115.14 17.41L115.14 34.34ZM123.20 34.34L118.55 34.34L118.55 10.87L123.20 10.87L123.20 23.52L128.94 17.41L134.67 17.41L128.53 24.23L134.64 34.34L129.37 34.34L125.06 27.12L123.20 29.16L123.20 34.34Z"></path>
  <path fill="#3056D3" d="M141.86 34.34L137.06 34.34L137.06 11.24L152.87 11.24L152.87 15.43L141.86 15.43L141.86 21.29L151.32 21.29L151.32 25.47L141.86 25.47L141.86 34.34ZM159.56 15.89L154.92 15.89L154.92 11.24L159.56 11.24L159.56 15.89ZM159.56 34.34L154.92 34.34L154.92 17.41L159.56 17.41L159.56 34.34ZM167.63 34.34L162.98 34.34L162.98 10.87L167.63 10.87L167.63 34.34ZM175.69 34.34L171.04 34.34L171.04 10.87L175.69 10.87L175.69 34.34Z"></path>
</svg>